 <svg  version="1.0" xmlns="http://www.w3.org/2000/svg"  width="300.000000pt" height="300.000000pt" viewBox="0 0 300.000000 300.000000"  preserveAspectRatio="xMidYMid meet">  <g transform="translate(0.000000,300.000000) scale(0.100000,-0.100000)" fill="#900909" stroke="none"> <path d="M1281 2894 c-7 -22 -15 -88 -18 -149 -6 -126 8 -204 56 -307 16 -35 39 -94 51 -133 12 -38 33 -89 46 -112 44 -77 28 -245 -49 -498 l-24 -80 -67 -1 c-37 -1 -65 2 -64 5 2 3 27 53 55 111 123 248 136 409 39 469 -17 11 -46 35 -64 54 -40 41 -57 121 -76 354 l-12 158 -17 -54 c-22 -70 -22 -209 -1 -282 9 -30 28 -76 43 -104 16 -27 34 -68 41 -90 7 -22 29 -71 48 -108 l35 -68 -11 -75 c-12 -73 -56 -206 -108 -317 l-25 -57 -72 0 c-91 0 -243 -23 -327 -49 -356 -111 16 -276 580 -258 264 9 564 55 790 121 46 14 86 23 88 22 5 -6 -102 -214 -160 -309 -180 -296 -350 -467 -524 -527 -76 -27 -191 -27 -277 0 -179 56 -427 302 -614 610 -59 97 -79 106 -27 13 183 -334 341 -536 500 -642 102 -69 158 -86 274 -86 272 1 503 192 694 573 53 106 161 380 153 388 -2 3 -17 0 -32 -6 -42 -16 -188 -47 -305 -64 -478 -71 -1210 -32 -1210 64 0 28 52 65 116 83 97 27 334 49 334 32 0 -3 -18 -41 -40 -85 -22 -44 -37 -80 -32 -80 4 0 33 38 63 84 l54 85 73 0 c39 1 72 0 72 -2 0 -1 -14 -38 -30 -81 -17 -43 -28 -81 -25 -84 7 -8 8 -6 54 86 l42 84 65 -4 c35 -3 64 -8 64 -11 0 -4 -16 -39 -36 -78 -19 -39 -33 -73 -30 -76 5 -6 106 136 106 150 0 5 31 7 78 3 42 -3 163 -13 267 -21 105 -8 213 -17 240 -20 32 -3 43 -1 30 4 -19 8 -367 54 -512 67 -40 4 -73 9 -73 11 0 3 8 17 19 31 32 47 90 169 117 248 46 139 33 238 -38 282 -66 41 -78 62 -89 158 -9 80 -8 167 6 334 l5 55 -20 -40 c-57 -116 -64 -286 -16 -386 14 -31 35 -85 47 -119 11 -34 30 -75 41 -91 18 -23 20 -38 16 -91 -6 -73 -43 -188 -97 -303 l-37 -80 -72 3 -72 4 19 37 c11 20 35 82 55 138 71 206 85 351 41 439 -13 27 -40 59 -59 72 -83 57 -105 134 -126 449 -6 92 -12 172 -14 177 -1 5 -8 -9 -15 -30z"/> <path d="M2394 1462 c-72 -25 -145 -86 -190 -157 -17 -26 -11 -23 49 22 107 83 184 93 230 31 17 -23 18 -32 10 -66 -36 -139 -330 -416 -514 -483 -71 -26 -63 -37 14 -19 154 37 326 156 453 314 79 98 133 201 141 264 5 41 2 52 -19 76 -32 37 -101 44 -174 18z m138 -39 c18 -16 25 -58 10 -66 -4 -3 -27 15 -51 39 l-43 44 33 0 c18 0 41 -7 51 -17z"/> <path d="M1910 711 c0 -5 44 -12 98 -16 171 -11 295 -26 384 -45 101 -22 122 -31 144 -66 15 -23 15 -28 -1 -69 -23 -62 -99 -126 -220 -185 -195 -96 -404 -124 -740 -101 -620 43 -1040 132 -1095 233 -13 25 -13 29 6 55 12 15 45 40 75 55 56 27 219 78 324 99 33 7 52 14 43 16 -24 6 -267 -44 -361 -74 -112 -35 -158 -56 -190 -88 -47 -47 -22 -87 87 -140 133 -65 483 -150 801 -195 282 -40 603 -43 839 -10 246 35 485 131 599 241 44 43 49 51 43 79 -10 51 -43 87 -109 119 -79 39 -154 58 -297 75 -150 19 -430 30 -430 17z m742 -144 c53 -41 64 -87 26 -121 -30 -28 -110 -81 -156 -105 -32 -16 -206 -81 -218 -81 -14 0 0 19 24 31 164 83 258 185 250 270 -5 50 14 51 74 6z m-2209 -95 c6 -30 5 -32 -14 -22 -27 15 -34 36 -17 54 16 18 24 10 31 -32z"/></g> </svg> 